<?xml version="1.0" encoding="UTF-8"?>
<svg width="128pt" height="128pt" version="1.1" viewBox="0 0 128 128" xmlns="http://www.w3.org/2000/svg">
 <g>
  <path d="m115.2 80h-76.801v-12.801c0-2.8164-3.457-4.2227-5.5039-2.3047l-25.602 25.602c-1.2812 1.2812-1.2812 3.3281 0 4.4805l25.602 25.602c1.9219 1.9219 5.5039 0.51172 5.5039-2.3047v-12.801h76.801c1.793 0 3.1992-1.4062 3.1992-3.1992v-19.074c0-1.793-1.4062-3.1992-3.1992-3.1992zm-3.1992 19.199h-76.801c-1.793 0-3.1992 1.4062-3.1992 3.1992v8.3203l-17.922-17.922 17.922-17.922v8.3242c0 1.793 1.4062 3.1992 3.1992 3.1992h76.801z"/>
  <path d="m95.105 7.2969c-2.0508-1.9219-5.5039-0.51172-5.5039 2.3047v12.801l-76.801-0.003906c-1.793 0-3.1992 1.4062-3.1992 3.1992v19.199c0 1.793 1.4062 3.1992 3.1992 3.1992h76.801v12.801c0 2.8164 3.457 4.2227 5.5039 2.3047l25.602-25.602c1.2812-1.2812 1.2812-3.3281 0-4.4805zm0.89453 45.824v-8.3203c0-1.793-1.4062-3.1992-3.1992-3.1992h-76.801v-12.801h76.801c1.793 0 3.1992-1.4062 3.1992-3.1992v-8.3203l17.922 17.922z"/>
 </g>
</svg>
