<?xml version="1.0" encoding="UTF-8"?>
<svg width="128pt" height="128pt" version="1.1" viewBox="0 0 128 128" xmlns="http://www.w3.org/2000/svg">
 <defs>
  <clipPath id="b">
   <path d="m74 49h30.305v30h-30.305z"/>
  </clipPath>
  <clipPath id="a">
   <path d="m23.695 49h30.305v30h-30.305z"/>
  </clipPath>
 </defs>
 <g clip-path="url(#b)">
  <path d="m88.445 64-14.039-14.344h15.656l14.242 14.344-14.242 14.344h-15.656zm-11.312 13.234h12.527l13.031-13.234-13.031-13.234h-12.527l12.93 13.234z"/>
 </g>
 <path d="m63.09 64-14.039-14.344h15.758l14.141 14.344-14.141 14.344h-15.758zm-11.312 13.234h12.527l13.031-13.234-13.031-13.234h-12.527l12.93 13.234z"/>
 <g clip-path="url(#a)">
  <path d="m37.734 64-14.039-14.344h15.758l14.141 14.344-14.141 14.344h-15.758zm-11.312 13.234h12.527l13.031-13.234-13.031-13.234h-12.527l12.93 13.234z"/>
 </g>
</svg>
