<?xml version="1.0" encoding="UTF-8"?>
<svg width="128pt" height="128pt" version="1.1" viewBox="0 0 128 128" xmlns="http://www.w3.org/2000/svg">
 <path d="m117.4 44c2.3984 0 4.6016-2 4.6016-4.6016v-14.398c0-2.1992-1.6016-4-3.6016-4.3984l-53.598-10.602h-1.6016l-53.598 10.801c-2 0.39844-3.6016 2.1992-3.6016 4.3984v14.398c0 2.4023 2 4.4023 4.6016 4.4023h3.6016v70h-6.2031c-1.1992 0-2 0.80078-2 2s0.80078 2 2 2h112c1.1992 0 2-0.80078 2-2s-0.80078-2-2-2h-6.1992v-70zm-107.4-4.6016v-14.398c0-0.19922 0.19922-0.39844 0.39844-0.60156l53.402-10.398h0.19922 0.19922l53.398 10.602c0.19922 0 0.39844 0.19922 0.39844 0.60156v14.398c0 0.19922-0.19922 0.60156-0.60156 0.60156l-106.79-0.003906c-0.40234-0.19922-0.60156-0.39844-0.60156-0.80078zm82.398 31.203h-56.797v-9.8008c0-0.39844 0.39844-0.80078 0.80078-0.80078h55.602c0.39844 0 0.80078 0.39844 0.80078 0.80078l-0.003907 9.8008zm-56.797 4h57v10.398h-57zm0 14.398h57v10.398h-57zm0 14.602h57v10.398h-57zm74.199 10.398h-13.199v-53.199c0-2.6016-2.1992-4.8008-4.8008-4.8008h-55.602c-2.6016 0-4.8008 2.1992-4.8008 4.8008v53.199h-13.199v-70h91.398l0.003906 70z"/>
</svg>
